<svg width="40" height="40" viewBox="0 0 40 40" fill="none" xmlns="http://www.w3.org/2000/svg">
<path fill-rule="evenodd" clip-rule="evenodd" d="M0 4.44444V21.3333V24.7778C0 25.3301 0.447715 25.7778 1 25.7778H4.44444H8.21554C9.02891 25.7778 9.50204 26.6971 9.02927 27.359L1.12946 38.4188C0.656693 39.0806 1.12982 40 1.94319 40H8.70125C9.09419 40 9.45072 39.7699 9.61253 39.4118L17.1413 22.7511C17.44 22.0901 16.9575 21.3409 16.2321 21.3394L13.3333 21.3333H5.44445C4.89216 21.3333 4.44444 20.8856 4.44444 20.3333V5.44444C4.44444 4.89216 4.89216 4.44444 5.44444 4.44444L34.5556 4.44445C35.1078 4.44445 35.5556 4.89216 35.5556 5.44445V20.3333C35.5556 20.8856 35.1078 21.3333 34.5556 21.3333H26.6667L23.7663 21.3333C23.0413 21.3333 22.5572 22.0808 22.8538 22.7424L30.3244 39.409C30.4856 39.7686 30.8429 40 31.2369 40H38.0568C38.8702 40 39.3433 39.0806 38.8705 38.4188L30.9707 27.359C30.498 26.6971 30.9711 25.7778 31.7845 25.7778H35.5556H36.4444H39C39.5523 25.7778 40 25.3301 40 24.7778V4.44445V1C40 0.447716 39.5523 0 39 0H35.5556H4.44444H1C0.447716 0 0 0.447715 0 1V4.44444ZM13.5952 16.8724C15.8571 16.8724 17.6934 15.0354 17.6934 12.766C17.6934 12.5307 17.6737 12.3 17.6358 12.0755C17.2446 12.9824 16.3436 13.617 15.2946 13.617C13.8868 13.617 12.7455 12.4739 12.7455 11.0638C12.7455 10.0122 13.3803 9.10908 14.287 8.71786C14.0621 8.67954 13.831 8.65959 13.5952 8.65959C11.3334 8.65959 9.49702 10.4966 9.49702 12.766C9.49702 15.0354 11.3334 16.8724 13.5952 16.8724ZM13.5952 17.8724C16.4109 17.8724 18.6934 15.5861 18.6934 12.766C18.6934 9.94579 16.4109 7.65959 13.5952 7.65959C10.7796 7.65959 8.49702 9.94579 8.49702 12.766C8.49702 15.5861 10.7796 17.8724 13.5952 17.8724ZM30.439 12.766C30.439 15.0354 28.6026 16.8724 26.3408 16.8724C24.0789 16.8724 22.2426 15.0354 22.2426 12.766C22.2426 10.4966 24.0789 8.6596 26.3408 8.6596C26.5765 8.6596 26.8077 8.67955 27.0326 8.71788C26.1259 9.10909 25.4911 10.0122 25.4911 11.0638C25.4911 12.4739 26.6323 13.617 28.0402 13.617C29.0892 13.617 29.9902 12.9824 30.3813 12.0755C30.4192 12.3 30.439 12.5307 30.439 12.766ZM31.439 12.766C31.439 15.5862 29.1564 17.8724 26.3408 17.8724C23.5251 17.8724 21.2426 15.5862 21.2426 12.766C21.2426 9.9458 23.5251 7.6596 26.3408 7.6596C29.1564 7.6596 31.439 9.9458 31.439 12.766Z" fill="white"/>
</svg>
