<svg width="48" height="60" viewBox="0 0 48 60" fill="none" xmlns="http://www.w3.org/2000/svg">
<path d="M40.9707 42.4263L24 60L7.02934 42.4263C3.67291 38.9506 1.38716 34.5222 0.461143 29.7012C-0.464879 24.8803 0.0104183 19.8832 1.82693 15.342C3.64344 10.8007 6.71958 6.91928 10.6664 4.18843C14.6131 1.45758 19.2533 0 24 0C28.7467 0 33.3869 1.45758 37.3337 4.18843C41.2804 6.91928 44.3566 10.8007 46.1731 15.342C47.9896 19.8832 48.4649 24.8803 47.5389 29.7012C46.6129 34.5222 44.3271 38.9506 40.9707 42.4263ZM24 30.3754C25.4145 30.3754 26.771 29.7936 27.7712 28.7578C28.7714 27.7221 29.3333 26.3173 29.3333 24.8526C29.3333 23.3878 28.7714 21.9831 27.7712 20.9474C26.771 19.9116 25.4145 19.3298 24 19.3298C22.5855 19.3298 21.229 19.9116 20.2288 20.9474C19.2286 21.9831 18.6667 23.3878 18.6667 24.8526C18.6667 26.3173 19.2286 27.7221 20.2288 28.7578C21.229 29.7936 22.5855 30.3754 24 30.3754Z" fill="#5125DB"/>
</svg>
