<svg width="50" height="50" viewBox="0 0 50 50" fill="none" xmlns="http://www.w3.org/2000/svg">
<path d="M25.0569 0H24.9431C11.1674 0 0 11.1674 0 24.9431V25.0569C0 38.8326 11.1674 50 24.9431 50H25.0569C38.8326 50 50 38.8326 50 25.0569V24.9431C50 11.1674 38.8326 0 25.0569 0Z" fill="white"/>
<path d="M9.46958 24.1476C9.53965 24.1126 9.60975 24.0793 9.67807 24.0478C10.8658 23.4977 12.0692 22.9827 13.2709 22.4677C13.3357 22.4677 13.4443 22.3924 13.5056 22.3679C13.5984 22.3276 13.6913 22.289 13.7841 22.2488L14.3184 22.0193C14.6758 21.8669 15.0314 21.7145 15.3887 21.5621C16.1017 21.2573 16.8146 20.9525 17.5276 20.6459C18.9535 20.0363 20.3812 19.4249 21.8071 18.8153C23.2331 18.2057 24.6607 17.5944 26.0866 16.9848C27.5126 16.3752 28.9402 15.7638 30.3661 15.1542C31.7921 14.5446 33.2198 13.9332 34.6457 13.3236C34.9627 13.187 35.3061 12.9838 35.6459 12.9242C35.9314 12.8734 36.21 12.7753 36.4972 12.721C37.042 12.6177 37.6429 12.5756 38.1649 12.8016C38.3453 12.8804 38.5118 12.9908 38.6501 13.1292C39.3123 13.7843 39.2194 14.8599 39.0793 15.7813C38.1036 22.2032 37.1279 28.6269 36.1504 35.0487C36.0173 35.9299 35.8351 36.8968 35.1396 37.4539C34.5511 37.9251 33.7137 37.9777 32.9867 37.778C32.2598 37.5765 31.6186 37.1543 30.9898 36.7392C28.3814 35.012 25.7713 33.2847 23.163 31.5575C22.5429 31.1476 21.8527 30.6116 21.8597 29.8671C21.8632 29.4186 22.1312 29.0192 22.4045 28.6636C24.6712 25.7067 27.9417 23.6747 30.3749 20.8544C30.7182 20.4567 30.988 19.7385 30.5168 19.509C30.2365 19.3724 29.9142 19.5581 29.6584 19.735C26.4422 21.9685 23.2278 24.2037 20.0116 26.4372C18.9623 27.1659 17.8622 27.9156 16.5975 28.0943C15.4658 28.2555 14.3272 27.9402 13.2324 27.6178C12.3145 27.3481 11.3983 27.0713 10.4856 26.7858C10.0004 26.6351 9.49937 26.4722 9.12449 26.1306C8.74962 25.789 8.53418 25.2145 8.76016 24.759C8.90205 24.4735 9.17708 24.293 9.46612 24.1459L9.46958 24.1476Z" fill="#090110"/>
</svg>
