<svg width="1500" height="286" viewBox="0 0 1500 286" fill="none" xmlns="http://www.w3.org/2000/svg">
<path d="M0 243.1L81.0648 43.6944H3.97376V3.97222H127.955V42.9L46.8904 242.306H127.955V282.028H0V243.1Z" fill="white"/>
<path d="M152.714 3.97222H271.927V43.6944H196.425V117.181H256.429V156.903H196.425V242.306H271.927V282.028H152.714V3.97222Z" fill="white"/>
<path d="M297.073 3.97222H361.845C384.363 3.97222 400.788 9.26852 411.12 19.8611C421.452 30.1889 426.618 46.2102 426.618 67.925V85.0056C426.618 113.87 417.081 132.143 398.007 139.822V140.617C408.603 143.794 416.021 150.282 420.26 160.081C424.763 169.879 427.015 182.987 427.015 199.406V248.264C427.015 256.208 427.28 262.696 427.81 267.728C428.34 272.494 429.664 277.261 431.784 282.028H387.278C385.688 277.526 384.628 273.289 384.099 269.317C383.569 265.344 383.304 258.194 383.304 247.867V197.022C383.304 184.311 381.184 175.44 376.946 170.408C372.972 165.377 365.952 162.861 355.885 162.861H340.784V282.028H297.073V3.97222ZM356.68 123.139C365.422 123.139 371.912 120.888 376.151 116.386C380.655 111.884 382.906 104.337 382.906 93.7444V72.2944C382.906 62.2315 381.052 54.9491 377.343 50.4472C373.899 45.9454 368.336 43.6944 360.653 43.6944H340.784V123.139H356.68Z" fill="white"/>
<path d="M520.526 286C499.068 286 482.643 279.909 471.251 267.728C459.86 255.546 454.164 238.333 454.164 216.089V69.9111C454.164 47.6667 459.86 30.4537 471.251 18.2722C482.643 6.09074 499.068 0 520.526 0C541.984 0 558.409 6.09074 569.801 18.2722C581.192 30.4537 586.888 47.6667 586.888 69.9111V216.089C586.888 238.333 581.192 255.546 569.801 267.728C558.409 279.909 541.984 286 520.526 286ZM520.526 246.278C535.626 246.278 543.176 237.142 543.176 218.869V67.1306C543.176 48.8583 535.626 39.7222 520.526 39.7222C505.426 39.7222 497.875 48.8583 497.875 67.1306V218.869C497.875 237.142 505.426 246.278 520.526 246.278Z" fill="white"/>
<path d="M736.916 286C715.723 286 699.695 280.042 688.833 268.125C677.972 255.943 672.541 238.598 672.541 216.089V200.2H713.868V219.267C713.868 237.274 721.418 246.278 736.519 246.278C743.936 246.278 749.5 244.159 753.208 239.922C757.182 235.42 759.169 228.27 759.169 218.472C759.169 206.82 756.52 196.625 751.222 187.886C745.923 178.882 736.121 168.157 721.816 155.711C703.801 139.822 691.218 125.522 684.065 112.811C676.912 99.8352 673.336 85.2704 673.336 69.1167C673.336 47.137 678.899 30.1889 690.026 18.2722C701.152 6.09074 717.312 0 738.506 0C759.434 0 775.197 6.09074 785.793 18.2722C796.655 30.1889 802.086 47.4019 802.086 69.9111V81.4306H760.759V67.1306C760.759 57.5972 758.904 50.712 755.195 46.475C751.487 41.9731 746.056 39.7222 738.903 39.7222C724.332 39.7222 717.047 48.5935 717.047 66.3361C717.047 76.3991 719.696 85.8 724.995 94.5389C730.558 103.278 740.492 113.87 754.798 126.317C773.077 142.206 785.661 156.638 792.549 169.614C799.437 182.59 802.881 197.817 802.881 215.294C802.881 238.069 797.185 255.546 785.793 267.728C774.667 279.909 758.374 286 736.916 286Z" fill="white"/>
<path d="M862.118 43.6944H816.419V3.97222H951.527V43.6944H905.829V282.028H862.118V43.6944Z" fill="white"/>
<path d="M1036.27 286C1015.08 286 998.917 280.042 987.791 268.125C976.664 255.943 971.101 238.598 971.101 216.089V3.97222H1014.81V219.267C1014.81 228.8 1016.67 235.685 1020.38 239.922C1024.35 244.159 1029.91 246.278 1037.07 246.278C1044.22 246.278 1049.65 244.159 1053.36 239.922C1057.33 235.685 1059.32 228.8 1059.32 219.267V3.97222H1101.44V216.089C1101.44 238.598 1095.88 255.943 1084.75 268.125C1073.62 280.042 1057.46 286 1036.27 286Z" fill="white"/>
<path d="M1132.57 3.97222H1199.33C1221.06 3.97222 1237.35 9.79815 1248.21 21.45C1259.07 33.1018 1264.5 50.1824 1264.5 72.6917V213.308C1264.5 235.818 1259.07 252.898 1248.21 264.55C1237.35 276.202 1221.06 282.028 1199.33 282.028H1132.57V3.97222ZM1198.54 242.306C1205.69 242.306 1211.12 240.187 1214.83 235.95C1218.8 231.713 1220.79 224.828 1220.79 215.294V70.7056C1220.79 61.1722 1218.8 54.287 1214.83 50.05C1211.12 45.813 1205.69 43.6944 1198.54 43.6944H1176.28V242.306H1198.54Z" fill="white"/>
<path d="M1294.01 3.97222H1337.72V282.028H1294.01V3.97222Z" fill="white"/>
<path d="M1433.64 286C1412.18 286 1395.75 279.909 1384.36 267.728C1372.97 255.546 1367.28 238.333 1367.28 216.089V69.9111C1367.28 47.6667 1372.97 30.4537 1384.36 18.2722C1395.75 6.09074 1412.18 0 1433.64 0C1455.1 0 1471.52 6.09074 1482.91 18.2722C1494.3 30.4537 1500 47.6667 1500 69.9111V216.089C1500 238.333 1494.3 255.546 1482.91 267.728C1471.52 279.909 1455.1 286 1433.64 286ZM1433.64 246.278C1448.74 246.278 1456.29 237.142 1456.29 218.869V67.1306C1456.29 48.8583 1448.74 39.7222 1433.64 39.7222C1418.54 39.7222 1410.99 48.8583 1410.99 67.1306V218.869C1410.99 237.142 1418.54 246.278 1433.64 246.278Z" fill="white"/>
</svg>
