<svg width="50" height="50" viewBox="0 0 50 50" fill="none" xmlns="http://www.w3.org/2000/svg">
<path d="M25.0569 0H24.9431C11.1674 0 0 11.1674 0 24.9431V25.0569C0 38.8326 11.1674 50 24.9431 50H25.0569C38.8326 50 50 38.8326 50 25.0569V24.9431C50 11.1674 38.8326 0 25.0569 0Z" fill="white"/>
<path d="M17.2055 11.9782L11.6367 17.547V37.5922H18.3179V43.161L23.8867 37.5922H28.3414L38.3648 27.5687V11.9782H17.2055ZM36.1366 26.4546L31.682 30.9093H27.2272L23.3296 34.8069V30.9093H18.3179V14.2047H36.1366V26.4546Z" fill="#090110"/>
<path d="M32.7938 18.105H30.5674V24.7861H32.7938V18.105Z" fill="#090110"/>
<path d="M26.6698 18.105H24.4434V24.7861H26.6698V18.105Z" fill="#090110"/>
</svg>
