<svg width="300" height="134" viewBox="0 0 300 134" fill="none" xmlns="http://www.w3.org/2000/svg">
<path fill-rule="evenodd" clip-rule="evenodd" d="M120.256 66.7733C120.256 96.449 96.2437 120.47 66.6665 120.47C37.0892 120.47 13.0764 96.449 13.0764 66.7733C13.0764 37.0976 37.0892 13.0764 66.6665 13.0764C69.7492 13.0764 72.7715 13.3374 75.7125 13.8385C63.8561 18.9542 55.5556 30.7639 55.5556 44.5153C55.5556 62.9542 70.4794 77.9019 88.8889 77.9019C102.606 77.9019 114.387 69.6033 119.503 57.7453C119.998 60.6802 120.256 63.6963 120.256 66.7733ZM133.333 66.7733C133.333 103.651 103.485 133.547 66.6665 133.547C29.8476 133.547 0 103.651 0 66.7733C0 29.8954 29.8476 0 66.6665 0C103.485 0 133.333 29.8954 133.333 66.7733ZM233.333 120.47C262.911 120.47 286.924 96.449 286.924 66.7733C286.924 63.6964 286.665 60.6802 286.17 57.7454C281.055 69.6034 269.273 77.9019 255.556 77.9019C237.147 77.9019 222.223 62.9542 222.223 44.5153C222.223 30.7639 230.523 18.9543 242.38 13.8385C239.439 13.3374 236.416 13.0764 233.333 13.0764C203.756 13.0764 179.743 37.0976 179.743 66.7733C179.743 96.449 203.756 120.47 233.333 120.47ZM233.333 133.547C270.152 133.547 300 103.651 300 66.7733C300 29.8954 270.152 9.4946e-06 233.333 9.4946e-06C196.515 9.4946e-06 166.667 29.8954 166.667 66.7733C166.667 103.651 196.515 133.547 233.333 133.547Z" fill="white"/>
</svg>
