<svg width="50" height="50" viewBox="0 0 50 50" fill="none" xmlns="http://www.w3.org/2000/svg">
<path d="M50 25C50 11.1929 38.8071 0 25 0C11.1929 0 0 11.1929 0 25C0 38.8071 11.1929 50 25 50C38.8071 50 50 38.8071 50 25Z" fill="white"/>
<path d="M35.6126 36.0725C34.8678 36.1533 34.1053 36.1674 33.3745 36.1656C27.674 36.1603 21.9733 36.1551 16.2745 36.1515C14.4809 36.1515 12.5274 36.0936 11.1414 34.9535C9.57963 33.6658 9.25464 31.433 9.12816 29.4127C8.95248 26.6441 8.93843 23.8667 9.08248 21.0964C9.16153 19.5751 9.30031 18.0168 9.95557 16.6396C10.4264 15.6505 11.2116 14.7616 12.2165 14.2943C13.3847 13.7515 14.6074 13.8481 15.8652 13.8464C18.8762 13.8429 21.8873 13.8411 24.8983 13.8376C28.0288 13.8341 31.1611 13.8323 34.2915 13.8288C35.7707 13.8288 37.3588 13.8587 38.5657 14.7142C40.1239 15.8174 40.5473 17.9167 40.7423 19.8157C41.1024 23.3134 41.1077 26.8479 40.7563 30.3456C40.6105 31.7878 40.3681 33.3127 39.4177 34.4071C38.4761 35.4928 37.0795 35.9109 35.6144 36.0707L35.6126 36.0725Z" fill="#090110"/>
<path d="M30.0981 24.9998L21.6025 20.095V29.9046L30.0981 24.9998Z" fill="white"/>
</svg>
